HIERARCHY
ROOT Hips
{
	OFFSET 0.00000 0.00000 0.00000
	CHANNELS 6 Xposition Yposition Zposition Zrotation Yrotation Xrotation 
	JOINT LHipJoint
	{
		OFFSET 0 0 0
		CHANNELS 3 Zrotation Yrotation Xrotation
		JOINT LeftUpLeg
		{
			OFFSET 2.36090 -1.39315 1.24752
			CHANNELS 3 Zrotation Yrotation Xrotation
			JOINT LeftLeg
			{
				OFFSET 2.06810 -5.68207 0.00000
				CHANNELS 3 Zrotation Yrotation Xrotation
				JOINT LeftFoot
				{
					OFFSET 2.46631 -6.77613 0.00000
					CHANNELS 3 Zrotation Yrotation Xrotation
					JOINT LeftToeBase
					{
						OFFSET 0.26031 -0.71520 1.99545
						CHANNELS 3 Zrotation Yrotation Xrotation
						End Site
						{
							OFFSET 0.00000 -0.00000 1.05957
						}
					}
				}
			}
		}
	}
	JOINT RHipJoint
	{
		OFFSET 0 0 0
		CHANNELS 3 Zrotation Yrotation Xrotation
		JOINT RightUpLeg
		{
			OFFSET -2.25243 -1.39315 1.24752
			CHANNELS 3 Zrotation Yrotation Xrotation
			JOINT RightLeg
			{
				OFFSET -2.17343 -5.97145 0.00000
				CHANNELS 3 Zrotation Yrotation Xrotation
				JOINT RightFoot
				{
					OFFSET -2.52372 -6.93386 0.00000
					CHANNELS 3 Zrotation Yrotation Xrotation
					JOINT RightToeBase
					{
						OFFSET -0.22538 -0.61923 2.11447
						CHANNELS 3 Zrotation Yrotation Xrotation
						End Site
						{
							OFFSET -0.00000 -0.00000 1.10506
						}
					}
				}
			}
		}
	}
	JOINT LowerBack
	{
		OFFSET 0 0 0
		CHANNELS 3 Zrotation Yrotation Xrotation
		JOINT Spine
		{
			OFFSET 0.01594 2.13103 0.08007
			CHANNELS 3 Zrotation Yrotation Xrotation
			JOINT Spine1
			{
				OFFSET 0.01393 2.09723 0.18338
				CHANNELS 3 Zrotation Yrotation Xrotation
				JOINT Neck
				{
					OFFSET 0 0 0
					CHANNELS 3 Zrotation Yrotation Xrotation
					JOINT Neck1
					{
						OFFSET 0.05351 1.38915 0.32494
						CHANNELS 3 Zrotation Yrotation Xrotation
						JOINT Head
						{
							OFFSET 0.00711 1.45992 -0.21666
							CHANNELS 3 Zrotation Yrotation Xrotation
							End Site
							{
								OFFSET -0.00433 1.47702 -0.11056
							}
						}
					}
				}
				JOINT LeftShoulder
				{
					OFFSET 0 0 0
					CHANNELS 3 Zrotation Yrotation Xrotation
					JOINT LeftArm
					{
						OFFSET 2.87198 0.92249 0.11132
						CHANNELS 3 Zrotation Yrotation Xrotation
						JOINT LeftForeArm
						{
							OFFSET 5.52731 -0.00000 0.00000
							CHANNELS 3 Zrotation Yrotation Xrotation
							JOINT LeftHand
							{
								OFFSET 3.11059 -0.00000 0.00000
								CHANNELS 3 Zrotation Yrotation Xrotation
								JOINT LeftFingerBase
								{
									OFFSET 0 0 0
									CHANNELS 3 Zrotation Yrotation Xrotation
									JOINT LeftHandIndex1
									{
										OFFSET 0.41963 -0.00000 0.00000
										CHANNELS 3 Zrotation Yrotation Xrotation
										End Site
										{
											OFFSET 0.33831 -0.00000 0.00000
										}
									}
								}
								JOINT LThumb
								{
									OFFSET 0 0 0
									CHANNELS 3 Zrotation Yrotation Xrotation
									End Site
									{
										OFFSET 0.34348 -0.00000 0.34348
									}
								}
							}
						}
					}
				}
				JOINT RightShoulder
				{
					OFFSET 0 0 0
					CHANNELS 3 Zrotation Yrotation Xrotation
					JOINT RightArm
					{
						OFFSET -2.94710 0.68072 0.32187
						CHANNELS 3 Zrotation Yrotation Xrotation
						JOINT RightForeArm
						{
							OFFSET -5.25396 -0.00000 -0.00000
							CHANNELS 3 Zrotation Yrotation Xrotation
							JOINT RightHand
							{
								OFFSET -3.10567 -0.00000 0.00000
								CHANNELS 3 Zrotation Yrotation Xrotation
								JOINT RightFingerBase
								{
									OFFSET 0 0 0
									CHANNELS 3 Zrotation Yrotation Xrotation
									JOINT RightHandIndex1
									{
										OFFSET -0.49868 -0.00000 0.00000
										CHANNELS 3 Zrotation Yrotation Xrotation
										End Site
										{
											OFFSET -0.40204 -0.00000 0.00000
										}
									}
								}
								JOINT RThumb
								{
									OFFSET 0 0 0
									CHANNELS 3 Zrotation Yrotation Xrotation
									End Site
									{
										OFFSET -0.40818 -0.00000 0.40818
									}
								}
							}
						}
					}
				}
			}
		}
	}
}
MOTION
Frames: 15
Frame Time: .0083333
5.4529 15.6137 16.7722 181.3930 13.2094 -519.8700 0.0000 0.0000 0.0000 -18.4945 -8.8282 -12.6477 0.8039 5.7225 15.9813 -0.9595 18.4544 -14.5857 5.0149 -13.4006 -40.8872 0.0000 0.0000 0.0000 14.0490 29.3793 -37.7904 -3.6649 -11.7006 34.6807 -0.2250 -6.1073 -13.2360 -0.1986 2.8698 -7.9165 5.1790 0.6406 -16.4495 3.9530 1.1187 -6.9106 1.4484 1.0327 1.8169 5.0723 0.5126 -17.4081 -3.8140 5.0113 40.4558 -1.2168 3.6967 18.3381 0.0000 0.0000 0.0000 -85.3096 14.7084 30.4258 13.9687 -22.6900 -2.8160 -0.0000 0.0000 -37.3909 17.0678 1.0623 0.3261 -7.1250 0.0000 -0.0000 -7.5597 31.0390 2.5993 0.0000 0.0000 0.0000 76.7195 -11.9842 -0.9889 -17.0231 26.8882 -4.0978 0.0000 -0.0000 -3.6505 -12.8703 -15.6717 3.5318 7.1250 -0.0000 -0.0000 13.8273 -45.5682 -0.1977
5.4730 15.6149 16.7477 181.3980 13.1552 -520.0440 0.0000 0.0000 0.0000 -18.3645 -8.9518 -13.3200 0.9735 6.2813 17.6029 -0.9451 18.3350 -14.5182 5.1925 -13.5974 -41.6480 0.0000 0.0000 0.0000 14.3403 29.1717 -37.4153 -3.6556 -11.6874 34.6349 -0.2425 -5.9428 -13.3552 -0.1922 2.8232 -7.7869 5.7290 0.6876 -16.1650 4.1646 1.1215 -6.8539 1.3567 1.0302 1.7234 5.1405 0.5825 -17.4168 -4.0103 5.1711 40.4219 -1.2892 3.7410 18.3441 0.0000 -0.0000 0.0000 -85.1532 14.8029 30.7533 14.1205 -22.9067 -2.8749 -0.0000 0.0000 -37.1374 16.8128 1.0000 0.3021 -7.1250 0.0000 -0.0000 -7.7559 30.9702 2.6808 0.0000 -0.0000 0.0000 76.4871 -11.7951 -1.0918 -17.0291 26.8961 -4.1005 0.0000 -0.0000 -3.7316 -13.2108 -15.7001 3.6347 7.1250 -0.0000 -0.0000 13.5274 -45.6378 -0.2169
5.4930 15.6169 16.7240 181.3820 13.0890 -520.2360 0.0000 0.0000 0.0000 -18.2391 -9.1053 -14.0185 1.1667 6.8566 19.2913 -0.9307 18.1807 -14.3458 5.3782 -13.7974 -42.4319 0.0000 0.0000 0.0000 14.6145 28.9567 -37.0228 -3.6457 -11.6734 34.5862 -0.2593 -5.7957 -13.4794 -0.1853 2.7725 -7.6460 6.2652 0.7233 -15.8664 4.3697 1.1159 -6.7918 1.2648 1.0233 1.6271 5.2077 0.6507 -17.4156 -4.2032 5.3294 40.3884 -1.3601 3.7857 18.3482 -0.0000 0.0000 0.0000 -84.9862 14.8873 31.0373 14.2837 -23.1389 -2.9387 -0.0000 0.0000 -36.9391 16.6199 0.9223 0.2753 -7.1250 0.0000 -0.0000 -7.9015 30.8866 2.7479 -0.0000 0.0000 0.0000 76.2504 -11.5856 -1.1868 -17.0165 26.8795 -4.0948 0.0000 -0.0000 -3.7918 -13.5478 -15.7462 3.7413 7.1250 -0.0000 -0.0000 13.2355 -45.7249 -0.2410
5.5131 15.6197 16.7011 181.3480 13.0150 -520.4390 0.0000 0.0000 0.0000 -18.1123 -9.2880 -14.7759 1.3897 7.4585 21.0811 -0.9126 17.9723 -14.0868 5.5615 -13.9895 -43.1952 0.0000 0.0000 0.0000 14.8696 28.7357 -36.6227 -3.6345 -11.6575 34.5308 -0.2754 -5.6603 -13.6032 -0.1779 2.7166 -7.4906 6.7901 0.7502 -15.5601 4.5672 1.1048 -6.7267 1.1708 1.0135 1.5292 5.2722 0.7165 -17.4034 -4.3908 5.4845 40.3541 -1.4286 3.8302 18.3491 -0.0000 -0.0000 0.0000 -84.8081 14.9604 31.2758 14.4567 -23.3838 -3.0070 -0.0000 0.0000 -36.7956 16.4923 0.8363 0.2476 -7.1250 0.0000 -0.0000 -7.9945 30.7958 2.7984 -0.0000 -0.0000 0.0000 76.0121 -11.3535 -1.2787 -16.9839 26.8366 -4.0801 0.0000 -0.0000 -3.8363 -13.8782 -15.8022 3.8491 7.1250 -0.0000 -0.0000 12.9520 -45.8214 -0.2670
5.5330 15.6234 16.6795 181.2990 12.9390 -520.6390 0.0000 0.0000 0.0000 -17.9779 -9.4990 -15.6302 1.6492 8.0936 22.9988 -0.8891 17.6976 -13.7408 5.7385 -14.1701 -43.9231 0.0000 0.0000 0.0000 15.0991 28.5112 -36.2359 -3.6219 -11.6395 34.4682 -0.2909 -5.5283 -13.7190 -0.1700 2.6558 -7.3220 7.3050 0.7711 -15.2519 4.7567 1.0924 -6.6629 1.0742 1.0031 1.4278 5.3329 0.7796 -17.3818 -4.5727 5.6359 40.3195 -1.4945 3.8740 18.3471 -0.0000 0.0000 0.0000 -84.6199 15.0220 31.4654 14.6377 -23.6389 -3.0792 -0.0000 0.0000 -36.7043 16.4293 0.7458 0.2199 -7.1250 0.0000 -0.0000 -8.0361 30.7013 2.8316 -0.0000 0.0000 0.0000 75.7742 -11.0973 -1.3733 -16.9303 26.7658 -4.0559 0.0000 -0.0000 -3.8678 -14.1966 -15.8598 3.9548 7.1250 -0.0000 -0.0000 12.6791 -45.9185 -0.2921
5.5527 15.6277 16.6596 181.2350 12.8660 -520.8200 0.0000 0.0000 0.0000 -17.8293 -9.7405 -16.6144 1.9516 8.7644 25.0612 -0.8585 17.3426 -13.3102 5.9019 -14.3326 -44.5867 0.0000 0.0000 0.0000 15.2942 28.2846 -35.8876 -3.6081 -11.6198 34.3999 -0.3057 -5.3903 -13.8207 -0.1617 2.5911 -7.1423 7.8091 0.7882 -14.9474 4.9378 1.0826 -6.6065 0.9761 0.9945 1.3199 5.3876 0.8396 -17.3540 -4.7478 5.7833 40.2860 -1.5570 3.9168 18.3439 0.0000 -0.0000 0.0000 -84.4230 15.0726 31.6042 14.8252 -23.9021 -3.1548 -0.0000 0.0000 -36.6620 16.4282 0.6529 0.1925 -7.1250 0.0000 -0.0000 -8.0287 30.6054 2.8475 0.0000 -0.0000 0.0000 75.5373 -10.8172 -1.4769 -16.8556 26.6670 -4.0223 0.0000 -0.0000 -3.8885 -14.4999 -15.9146 4.0563 7.1250 -0.0000 -0.0000 12.4185 -46.0112 -0.3148
5.5722 15.6325 16.6418 181.1550 12.7965 -520.9720 0.0000 0.0000 0.0000 -17.6606 -10.0181 -17.7508 2.3019 9.4684 27.2718 -0.8208 16.9015 -12.7812 6.0484 -14.4751 -45.1757 0.0000 0.0000 0.0000 15.4457 28.0568 -35.5999 -3.5942 -11.5999 34.3308 -0.3202 -5.2406 -13.9063 -0.1534 2.5239 -6.9559 8.2995 0.8024 -14.6527 5.1108 1.0772 -6.5617 0.8784 0.9887 1.2041 5.4345 0.8961 -17.3244 -4.9157 5.9265 40.2551 -1.6154 3.9581 18.3414 0.0000 0.0000 0.0000 -84.2187 15.1114 31.6920 15.0186 -24.1720 -3.2335 -0.0000 0.0000 -36.6660 16.4864 0.5579 0.1651 -7.1250 0.0000 -0.0000 -7.9745 30.5081 2.8467 0.0000 0.0000 0.0000 75.3017 -10.5136 -1.5924 -16.7618 26.5427 -3.9803 0.0000 -0.0000 -3.9010 -14.7897 -15.9695 4.1546 7.1250 -0.0000 -0.0000 12.1698 -46.1028 -0.3361
5.5916 15.6379 16.6261 181.0570 12.7256 -521.0880 0.0000 0.0000 0.0000 -17.4668 -10.3404 -19.0434 2.7036 10.1990 29.6237 -0.7760 16.3675 -12.1458 6.1692 -14.5903 -45.6569 0.0000 0.0000 0.0000 15.5485 27.8266 -35.3833 -3.5814 -11.5815 34.2671 -0.3343 -5.0793 -13.9794 -0.1452 2.4558 -6.7671 8.7721 0.8120 -14.3735 5.2764 1.0743 -6.5313 0.7841 0.9849 1.0804 5.4731 0.9490 -17.2968 -5.0777 6.0660 40.2291 -1.6702 3.9980 18.3420 -0.0000 0.0000 0.0000 -84.0096 15.1403 31.7292 15.2175 -24.4483 -3.3155 -0.0000 0.0000 -36.7128 16.6011 0.4595 0.1370 -7.1250 0.0000 -0.0000 -7.8757 30.4080 2.8299 -0.0000 0.0000 0.0000 75.0669 -10.1902 -1.7178 -16.6529 26.3980 -3.9318 0.0000 -0.0000 -3.9102 -15.0714 -16.0329 4.2535 7.1250 -0.0000 -0.0000 11.9303 -46.2020 -0.3590
5.6109 15.6436 16.6121 180.9390 12.6445 -521.1700 0.0000 0.0000 0.0000 -17.2450 -10.7163 -20.4812 3.1580 10.9466 32.0999 -0.7260 15.7458 -11.3821 6.2584 -14.6742 -46.0102 0.0000 0.0000 0.0000 15.6026 27.5916 -35.2360 -3.5710 -11.5665 34.2151 -0.3485 -4.9114 -14.0483 -0.1373 2.3881 -6.5796 9.2236 0.8145 -14.1144 5.4353 1.0698 -6.5147 0.6951 0.9810 0.9518 5.5044 0.9981 -17.2748 -5.2356 6.2019 40.2095 -1.7222 4.0364 18.3475 -0.0000 -0.0000 0.0000 -83.7973 15.1610 31.7185 15.4230 -24.7320 -3.4009 -0.0000 0.0000 -36.7995 16.7712 0.3583 0.1080 -7.1250 0.0000 -0.0000 -7.7334 30.3055 2.7970 -0.0000 -0.0000 0.0000 74.8329 -9.8519 -1.8493 -16.5340 26.2393 -3.8790 0.0000 -0.0000 -3.9211 -15.3519 -16.1153 4.3578 7.1250 -0.0000 -0.0000 11.6970 -46.3207 -0.3865
5.6306 15.6497 16.5990 180.7990 12.5412 -521.2290 0.0000 0.0000 0.0000 -16.9937 -11.1534 -22.0365 3.6646 11.7002 34.6797 -0.6720 15.0423 -10.4810 6.3032 -14.7158 -46.1867 0.0000 0.0000 0.0000 15.6151 27.3482 -35.1391 -3.5635 -11.5557 34.1777 -0.3628 -4.7484 -14.1234 -0.1298 2.3219 -6.3961 9.6523 0.8062 -13.8771 5.5884 1.0572 -6.5085 0.6124 0.9739 0.8227 5.5295 1.0430 -17.2591 -5.3900 6.3337 40.1962 -1.7723 4.0729 18.3582 0.0000 0.0000 0.0000 -83.5832 15.1756 31.6631 15.6363 -25.0250 -3.4907 -0.0000 0.0000 -36.9235 16.9937 0.2537 0.0775 -7.1250 0.0000 -0.0000 -7.5501 30.1997 2.7489 0.0000 0.0000 0.0000 74.5999 -9.5036 -1.9817 -16.4103 26.0738 -3.8245 0.0000 -0.0000 -3.9394 -15.6346 -16.2221 4.4704 7.1250 -0.0000 -0.0000 11.4682 -46.4646 -0.4199
5.6505 15.6559 16.5862 180.6410 12.4097 -521.2750 0.0000 0.0000 0.0000 -16.7112 -11.6527 -23.6838 4.2211 12.4489 37.3392 -0.6168 14.2781 -9.4197 6.2951 -14.7083 -46.1547 0.0000 0.0000 0.0000 15.5976 27.0938 -35.0734 -3.5589 -11.5491 34.1549 -0.3771 -4.5978 -14.2106 -0.1227 2.2579 -6.2188 10.0606 0.7854 -13.6596 5.7368 1.0328 -6.5096 0.5355 0.9613 0.6950 5.5519 1.0838 -17.2488 -5.5441 6.4609 40.1881 -1.8224 4.1076 18.3734 -0.0000 0.0000 0.0000 -83.3694 15.1881 31.5660 15.8593 -25.3295 -3.5856 -0.0000 0.0000 -37.0808 17.2645 0.1440 0.0448 -7.1250 0.0000 -0.0000 -7.3289 30.0887 2.6867 -0.0000 0.0000 0.0000 74.3678 -9.1504 -2.1118 -16.2862 25.9072 -3.7701 0.0000 -0.0000 -3.9682 -15.9187 -16.3542 4.5914 7.1250 -0.0000 -0.0000 11.2447 -46.6348 -0.4593
5.6707 15.6622 16.5734 180.4700 12.2492 -521.3180 0.0000 0.0000 0.0000 -16.3949 -12.2090 -25.3996 4.8238 13.1826 40.0560 -0.5617 13.4736 -8.1933 6.2200 -14.6382 -45.8585 0.0000 0.0000 0.0000 15.5647 26.8269 -35.0195 -3.5563 -11.5453 34.1417 -0.3915 -4.4632 -14.3109 -0.1160 2.1955 -6.0462 10.4549 0.7529 -13.4571 5.8817 0.9963 -6.5151 0.4618 0.9431 0.5691 5.5747 1.1200 -17.2409 -5.6986 6.5817 40.1829 -1.8742 4.1401 18.3909 0.0000 0.0000 0.0000 -83.1563 15.2011 31.4321 16.0939 -25.6478 -3.6865 -0.0000 0.0000 -37.2682 17.5780 0.0299 0.0095 -7.1250 0.0000 -0.0000 -7.0742 29.9730 2.6118 0.0000 0.0000 0.0000 74.1375 -8.7970 -2.2389 -16.1652 25.7441 -3.7174 0.0000 -0.0000 -4.0099 -16.1972 -16.5047 4.7175 7.1250 -0.0000 -0.0000 11.0311 -46.8234 -0.5023
5.6910 15.6686 16.5604 180.2960 12.0649 -521.3610 0.0000 0.0000 0.0000 -16.0413 -12.8099 -27.1707 5.4680 13.8922 42.8073 -0.5072 12.6548 -6.7931 6.0689 -14.4948 -45.2575 0.0000 0.0000 0.0000 15.5309 26.5488 -34.9645 -3.5540 -11.5420 34.1303 -0.4057 -4.3446 -14.4195 -0.1096 2.1343 -5.8769 10.8439 0.7113 -13.2625 6.0243 0.9510 -6.5238 0.3885 0.9206 0.4425 5.6012 1.1513 -17.2314 -5.8549 6.6942 40.1776 -1.9292 4.1698 18.4077 -0.0000 0.0000 0.0000 -82.9444 15.2177 31.2666 16.3415 -25.9815 -3.7943 -0.0000 0.0000 -37.4823 17.9279 -0.0903 -0.0292 -7.1250 0.0000 -0.0000 -6.7912 29.8505 2.5259 -0.0000 0.0000 0.0000 73.9094 -8.4461 -2.3660 -16.0485 25.5863 -3.6669 0.0000 -0.0000 -4.0629 -16.4575 -16.6616 4.8413 7.1250 -0.0000 -0.0000 10.8355 -47.0168 -0.5455
5.7112 15.6749 16.5474 180.1310 11.8650 -521.4050 0.0000 0.0000 0.0000 -15.6466 -13.4385 -28.9913 6.1479 14.5702 45.5724 -0.4521 11.8418 -5.2261 5.8332 -14.2647 -44.3085 0.0000 0.0000 0.0000 15.5092 26.2628 -34.9007 -3.5501 -11.5363 34.1108 -0.4193 -4.2381 -14.5282 -0.1032 2.0718 -5.7041 11.2358 0.6642 -13.0679 6.1666 0.9021 -6.5359 0.3136 0.8962 0.3108 5.6334 1.1775 -17.2168 -6.0131 6.7968 40.1693 -1.9883 4.1965 18.4211 0.0000 0.0000 0.0000 -82.7347 15.2401 31.0761 16.6039 -26.3326 -3.9100 -0.0000 0.0000 -37.7207 18.3074 -0.2164 -0.0716 -7.1250 0.0000 -0.0000 -6.4853 29.7213 2.4309 0.0000 0.0000 0.0000 73.6824 -8.0992 -2.4956 -15.9365 25.4345 -3.6187 0.0000 -0.0000 -4.1260 -16.6889 -16.8146 4.9566 7.1250 -0.0000 -0.0000 10.6652 -47.2031 -0.5862
5.7310 15.6813 16.5348 179.9820 11.6586 -521.4480 0.0000 0.0000 0.0000 -15.2096 -14.0756 -30.8584 6.8570 15.2103 48.3315 -0.3926 11.0377 -3.5156 5.5111 -13.9372 -42.9866 0.0000 0.0000 0.0000 15.5088 25.9744 -34.8236 -3.5427 -11.5256 34.0737 -0.4318 -4.1409 -14.6286 -0.0967 2.0052 -5.5201 11.6364 0.6150 -12.8674 6.3104 0.8544 -6.5503 0.2365 0.8721 0.1721 5.6723 1.1988 -17.1962 -6.1728 6.8879 40.1555 -2.0519 4.2193 18.4291 0.0000 0.0000 0.0000 -82.5280 15.2670 30.8668 16.8818 -26.7017 -4.0341 -0.0000 0.0000 -37.9813 18.7132 -0.3462 -0.1173 -7.1250 0.0000 -0.0000 -6.1594 29.5875 2.3271 0.0000 0.0000 0.0000 73.4557 -7.7537 -2.6290 -15.8291 25.2883 -3.5726 0.0000 -0.0000 -4.1994 -16.8843 -16.9583 5.0592 7.1250 -0.0000 -0.0000 10.5252 -47.3755 -0.6235
